<?xml version="1.0" encoding="UTF-8"?>
<svg version="1.1" xmlns="http://www.w3.org/2000/svg" width="191" height="101">
<path d="M0 0 C3.80977996 1.0119728 5.19603017 2.47084116 7.5 5.6640625 C8.2204549 9.01752009 8.19931228 12.24569748 8.125 15.6640625 C8.15400391 16.99824219 8.15400391 16.99824219 8.18359375 18.359375 C8.15019255 22.83513603 7.9497217 25.04076401 5.2734375 28.75 C1.54006391 31.32655361 -0.70389139 31.38034455 -5.11328125 31.15625 C-8.82449098 30.39092688 -10.45189042 28.7715391 -12.5 25.6640625 C-12.3125 23.3515625 -12.3125 23.3515625 -11.5 21.6640625 C-8.82261771 22.15987404 -7.29709647 22.80102239 -5 24.3515625 C-2.60883401 25.97092801 -2.60883401 25.97092801 -0.25 25.0390625 C1.79712875 23.69033416 1.79712875 23.69033416 2.5 20.6640625 C1.83613281 20.72207031 1.17226562 20.78007813 0.48828125 20.83984375 C-3.9935245 21.06884112 -6.70555753 21.14072798 -10.625 18.7890625 C-13.2769173 14.36920034 -13.48876625 10.69029096 -12.5 5.6640625 C-9.30874565 0.34530525 -5.76211233 0.09003301 0 0 Z M-6.125 7.1640625 C-6.90875 7.9890625 -7.6925 8.8140625 -8.5 9.6640625 C-7.5641736 12.89691734 -7.01943484 14.33599839 -4.125 16.1640625 C-1.49628907 16.91940326 -1.49628907 16.91940326 0.8125 15.6640625 C2.75518311 13.70684524 2.75518311 13.70684524 3 10.6640625 C2.78577545 7.58656407 2.78577545 7.58656407 0.625 5.7890625 C-2.88698986 3.92977375 -3.14056757 4.3217459 -6.125 7.1640625 Z " fill="#FFFFFF" transform="translate(163.5,33.3359375)"/>
<path d="M0 0 C3.43534437 1.60530111 5.50853152 3.70111901 6.875 7.3125 C6.91625 7.869375 6.9575 8.42625 7 9 C4.75 9.75 4.75 9.75 2 10 C0.62437146 8.71034824 -0.70766393 7.37310707 -2 6 C-5.31954163 4.68965462 -6.75604579 4.92346535 -10.1875 6 C-13.25208059 7.83353764 -13.25208059 7.83353764 -14.5625 11.3125 C-15.08957928 15.75502539 -14.71945106 17.45647286 -12 21 C-8.7339217 22.75461331 -8.7339217 22.75461331 -5 23 C-0.66013237 21.4870752 -0.66013237 21.4870752 2 18 C3.9375 18.375 3.9375 18.375 6 19 C6.33 19.66 6.66 20.32 7 21 C1.4842873 27.82206571 1.4842873 27.82206571 -2.57421875 28.30859375 C-12.01300734 28.69940934 -12.01300734 28.69940934 -16.1875 25.125 C-20.47452172 20.80668615 -20.44722308 17.00903379 -20.42578125 11.0625 C-19.78309618 6.43988442 -17.57552792 3.86227494 -14 1 C-9.79629913 -1.10185044 -4.56559641 -0.53572839 0 0 Z " fill="#FFFFFF" transform="translate(31,26)"/>
<path d="M0 0 C1.32 0 2.64 0 4 0 C4.33 3.3 4.66 6.6 5 10 C6.546875 9.896875 8.09375 9.79375 9.6875 9.6875 C13.45315095 9.71420674 14.80436021 9.88261612 18.125 11.875 C20.7769173 16.29486216 20.98876625 19.97377154 20 25 C18.125 28.125 18.125 28.125 15 30 C10.04544976 30.97466562 6.55546435 30.96808621 2.20703125 28.26171875 C-1.24164942 23.16499599 -0.53086547 18.18415169 -0.3125 12.1875 C-0.28994141 11.01767578 -0.26738281 9.84785156 -0.24414062 8.64257812 C-0.18532091 5.76041231 -0.10317141 2.88086319 0 0 Z M6.375 16.5 C5.59125 17.325 4.8075 18.15 4 19 C4.9358264 22.23285484 5.48056516 23.67193589 8.375 25.5 C11.00371093 26.25534076 11.00371093 26.25534076 13.3125 25 C15.25518311 23.04278274 15.25518311 23.04278274 15.5 20 C15.28577545 16.92250157 15.28577545 16.92250157 13.125 15.125 C9.61301014 13.26571125 9.35943243 13.6576834 6.375 16.5 Z " fill="#FFFFFF" transform="translate(79,24)"/>
<path d="M0 0 C3.125 2.0625 3.125 2.0625 5 5 C5 7.31 5 9.62 5 12 C0.38 12.33 -4.24 12.66 -9 13 C-4.05445816 14.97821674 -2.86839009 15.13218374 2 14 C2.33 15.32 2.66 16.64 3 18 C-1.25929566 20.83953044 -5.00382943 20.73987876 -10 20 C-13.125 18.125 -13.125 18.125 -15 15 C-15.98876625 9.97377154 -15.7769173 6.29486216 -13.125 1.875 C-8.71792785 -0.76924329 -5.01354159 -1.01092724 0 0 Z M-8.125 6 C-8.74375 6.66 -9.3625 7.32 -10 8 C-6.7 8 -3.4 8 0 8 C-1.28965176 6.62437146 -2.62689293 5.29233607 -4 4 C-6.24362573 3.7715451 -6.24362573 3.7715451 -8.125 6 Z " fill="#FFFFFF" transform="translate(116,34)"/>
<path d="M0 0 C0.825 -0.01289062 1.65 -0.02578125 2.5 -0.0390625 C6.22718733 0.95097163 7.70513824 2.55841482 10 5.625 C10.36771245 8.4637401 10.48630804 10.64320151 10.3125 13.4375 C10.28994141 14.13037109 10.26738281 14.82324219 10.24414062 15.53710938 C10.18562661 17.23401573 10.0959548 18.92979861 10 20.625 C8.68 20.625 7.36 20.625 6 20.625 C5.91363281 19.70976563 5.82726562 18.79453125 5.73828125 17.8515625 C5.59777344 16.66304687 5.45726562 15.47453125 5.3125 14.25 C5.18488281 13.06664062 5.05726563 11.88328125 4.92578125 10.6640625 C4.32142947 7.40998188 4.32142947 7.40998188 1.41796875 6.2109375 C0.22107422 5.92089844 0.22107422 5.92089844 -1 5.625 C-3.16749754 6.94474709 -3.16749754 6.94474709 -5 9.625 C-5.6575225 13.28082511 -5.87210648 16.91608788 -6 20.625 C-7.32 20.625 -8.64 20.625 -10 20.625 C-10.13572155 18.22725255 -10.23436868 15.83724755 -10.3125 13.4375 C-10.35439453 12.76396484 -10.39628906 12.09042969 -10.43945312 11.39648438 C-10.53366241 7.53390352 -10.12848076 5.79668668 -7.79296875 2.67578125 C-4.84637744 0.51220022 -3.59412242 -0.05615816 0 0 Z " fill="#FFFFFF" transform="translate(139,33.375)"/>
<path d="M0 0 C1.32 0 2.64 0 4 0 C4.04898438 0.83144531 4.09796875 1.66289063 4.1484375 2.51953125 C4.22320312 3.60621094 4.29796875 4.69289063 4.375 5.8125 C4.44460937 6.89144531 4.51421875 7.97039063 4.5859375 9.08203125 C4.81195733 12.18626186 4.81195733 12.18626186 7 15 C7.99 14.67 8.98 14.34 10 14 C11.35091528 11.29816945 11.33858058 8.88191794 11.5625 5.875 C11.64628906 4.77929688 11.73007812 3.68359375 11.81640625 2.5546875 C11.87699219 1.71164063 11.93757813 0.86859375 12 0 C13.32 0 14.64 0 16 0 C16.1081866 2.58445773 16.18737237 5.16437352 16.25 7.75 C16.30027344 8.84441406 16.30027344 8.84441406 16.3515625 9.9609375 C16.41569582 13.4882702 16.30458894 15.5714191 14.234375 18.484375 C11.88920944 20.07515164 10.7960502 20.54368828 8 20.5 C7.34 20.5103125 6.68 20.520625 6 20.53125 C2.93733783 19.71773036 1.83550858 18.58270676 0 16 C-0.2906124 13.10550051 -0.38186045 10.62050065 -0.25 7.75 C-0.23195312 7.00492188 -0.21390625 6.25984375 -0.1953125 5.4921875 C-0.14835649 3.66090299 -0.07661652 1.83028351 0 0 Z " fill="#FFFFFF" transform="translate(40,34)"/>
<path d="M0 0 C1.32 0 2.64 0 4 0 C4 3.3 4 6.6 4 10 C5.65 10 7.3 10 9 10 C9 11.32 9 12.64 9 14 C7.35 14 5.7 14 4 14 C4 19.28 4 24.56 4 30 C2.68 30 1.36 30 0 30 C0 24.72 0 19.44 0 14 C-1.65 14 -3.3 14 -5 14 C-5 12.68 -5 11.36 -5 10 C-3.35 10 -1.7 10 0 10 C0 6.7 0 3.4 0 0 Z " fill="#FFFFFF" transform="translate(68,24)"/>
<path d="M0 0 C1.32 0 2.64 0 4 0 C4 9.9 4 19.8 4 30 C2.68 30 1.36 30 0 30 C0 20.1 0 10.2 0 0 Z " fill="#FFFFFF" transform="translate(58,24)"/>
<path d="M0 0 C1.32 0 2.64 0 4 0 C4 6.6 4 13.2 4 20 C2.68 20 1.36 20 0 20 C0 13.4 0 6.8 0 0 Z " fill="#FFFFFF" transform="translate(123,34)"/>
<path d="M0 0 C1.32 0 2.64 0 4 0 C4 1.32 4 2.64 4 4 C2.68 4 1.36 4 0 4 C0 2.68 0 1.36 0 0 Z " fill="#FFFFFF" transform="translate(123,26)"/>
</svg>
